<svg width="16" height="16" xmlns="http://www.w3.org/2000/svg">
 <g>
  <title>Layer 1</title>
  <path fill="#fff" stroke="#000" opacity="NaN" d="m23.18072,5.63052" id="svg_6"/>
  <path d="m-0.14545,3.52727c0.07273,0 0.09403,-0.0213 0.14545,-0.07273c0.05143,-0.05143 0.12316,-0.1061 0.21818,-0.14545c0.06719,-0.02783 0.09403,-0.09403 0.14545,-0.14545c0.05143,-0.05143 0.09403,-0.0213 0.14545,-0.07273c0.05143,-0.05143 0.16676,-0.0213 0.21818,-0.07273c0.05143,-0.05143 0.0213,-0.09403 0.07273,-0.14545c0.05143,-0.05143 0.11762,-0.00554 0.14545,-0.07273c0.03936,-0.09502 0.15099,-0.0449 0.21818,-0.07273c0.09502,-0.03936 0.05043,-0.17882 0.14545,-0.21818c0.13438,-0.05566 0.16676,-0.0213 0.21818,-0.07273c0.05143,-0.05143 0.0213,-0.09403 0.07273,-0.14545c0.05143,-0.05143 0.07826,-0.0449 0.14545,-0.07273c0.09502,-0.03936 0.12316,-0.1061 0.21818,-0.14545c0.06719,-0.02783 0.14545,0 0.14545,-0.07273c0,-0.07273 0.07826,-0.0449 0.14545,-0.07273c0.09502,-0.03936 0.14545,-0.07273 0.21818,-0.07273c0.07273,0 0.15099,-0.0449 0.21818,-0.07273c0.09502,-0.03936 0.16676,-0.0213 0.21818,-0.07273c0.05143,-0.05143 0.07273,-0.07273 0.14545,-0.07273c0.07273,0 0.21818,-0.07273 0.29091,-0.07273c0.07273,0 0.14545,0 0.36364,0c0.29091,0 0.60436,-0.04818 0.8,0.07273c0.08749,0.05407 0.16676,0.09403 0.21818,0.14545c0.05143,0.05143 0.12309,0.08626 0.21818,0.21818c0.06014,0.08344 0.05037,0.15898 0.14545,0.29091c0.06014,0.08344 0.14545,0.21818 0.14545,0.29091c0,0.14545 0.03337,0.26861 0.07273,0.36364c0.05566,0.13438 0,0.29091 0,0.36364c0,0.07273 0,0.21818 0,0.29091c0,0.07273 -0.01259,0.20747 -0.07273,0.29091c-0.09509,0.13193 -0.10319,0.32137 -0.21818,0.43636c-0.11499,0.11499 -0.21818,0.29091 -0.36364,0.43636c-0.07273,0.07273 -0.15898,0.12309 -0.29091,0.21818c-0.16688,0.12028 -0.27728,0.23322 -0.43636,0.36364c-0.20279,0.16625 -0.44207,0.2029 -0.65455,0.29091c-0.15024,0.06223 -0.29645,0.11762 -0.36364,0.14545c-0.09502,0.03936 -0.10293,0.08645 -0.14545,0.14545c-0.13447,0.18657 -0.30198,0.08979 -0.43636,0.14545c-0.09502,0.03936 -0.15898,0.12309 -0.29091,0.21818c-0.08344,0.06014 -0.10319,0.10319 -0.21818,0.21818c-0.11499,0.11499 -0.21818,0.14545 -0.21818,0.21818c0,0.07273 -0.08532,0.06202 -0.14545,0.14545c-0.09509,0.13193 -0.14545,0.29091 -0.14545,0.36364c0,0.07273 0,0.14545 0,0.21818c0,0.07273 0,0.14545 0,0.21818c0,0.07273 0,0.14545 0.07273,0.21818c0.07273,0.07273 0.07273,0.14545 0.14545,0.14545c0.07273,0 0.1474,-0.01671 0.21818,0c0.15827,0.03736 0.43636,0.07273 0.72727,0.07273c0.21818,0 0.36364,0.07273 0.50909,0.07273c0.14545,0 0.36364,0 0.58182,0c0.21818,0 0.36934,0.01528 0.58182,-0.07273c0.15024,-0.06223 0.27809,-0.18082 0.43636,-0.21818c0.21235,-0.05013 0.44989,-0.12309 0.58182,-0.21818c0.08344,-0.06014 0.37903,-0.12466 0.58182,-0.29091c0.07954,-0.06521 0.26949,-0.24336 0.43636,-0.36364c0.13193,-0.09509 0.17359,-0.21219 0.36364,-0.29091c0.06719,-0.02783 0.07857,-0.17283 0.36364,-0.29091c0.06719,-0.02783 0.19676,-0.0979 0.36364,-0.21818c0.13193,-0.09509 0.19676,-0.17063 0.36364,-0.29091c0.13193,-0.09509 0.33555,-0.16705 0.50909,-0.36364c0.10762,-0.12191 0.29644,-0.26308 0.36364,-0.29091c0.19005,-0.07872 0.23358,-0.27012 0.43636,-0.43636c0.07954,-0.06521 0.14545,-0.14545 0.21818,-0.21818c0.07273,-0.07273 0.09403,-0.09403 0.14545,-0.14545c0.05143,-0.05143 0.19589,-0.17882 0.29091,-0.21818c0.06719,-0.02783 0.14546,-0.07273 0.21818,-0.07273c0.07273,0 0.20536,-0.10809 0.36364,-0.14545c0.14156,-0.03342 0.21818,0 0.29091,0c0.07273,0 0.13264,0.03536 0.29091,0.07273c0.07078,0.01671 0.10809,0.05991 0.14545,0.21818c0.01671,0.07078 0.07273,0.07273 0.07273,0.21818c0,0.14545 0.07273,0.21818 0.07273,0.36364c0,0.14545 0,0.29091 0,0.43636c0,0.14545 0,0.29091 0,0.43636c0,0.14545 0.03342,0.2948 0,0.43636c-0.03736,0.15827 -0.10609,0.34134 -0.14545,0.43636c-0.05566,0.13438 -0.05744,0.29661 -0.14545,0.50909c-0.06223,0.15024 -0.19711,0.29403 -0.21818,0.36364c-0.07599,0.25097 -0.30475,0.28229 -0.43636,0.50909c-0.08162,0.14065 -0.15898,0.34128 -0.29091,0.43636c-0.16688,0.12028 -0.21818,0.21818 -0.36364,0.36364c-0.14545,0.14545 -0.26949,0.31609 -0.43636,0.43636c-0.13193,0.09509 -0.26262,0.14022 -0.43636,0.29091c-0.12285,0.10655 -0.399,0.27809 -0.43636,0.43636c-0.01671,0.07078 -0.08359,0.10722 -0.14545,0.14545c-0.13834,0.0855 -0.21818,0.29091 -0.29091,0.36364c-0.07273,0.07273 -0.07273,0.14546 -0.14545,0.21818c-0.07273,0.07273 -0.16676,0.31221 -0.21818,0.36364c-0.05143,0.05143 -0.07273,0.07273 -0.07273,0.14545c0,0.07273 -0.07273,0.14545 -0.07273,0.21818c0,0.07273 0,0.14546 0,0.29091c0,0.07273 0,0.14545 0,0.21818c0,0.07273 0.0213,0.09403 0.07273,0.14545c0.05143,0.05143 0.00554,0.11762 0.07273,0.14545c0.09502,0.03936 0.15099,0.11762 0.21818,0.14545c0.09502,0.03936 0.23948,0.09403 0.29091,0.14545c0.05143,0.05143 0.05991,0.10809 0.21818,0.14546c0.07078,0.01671 0.14545,0.07273 0.21818,0.07273c0.07273,0 0.12316,0.03337 0.21818,0.07273c0.20157,0.0835 0.30752,-0.01077 0.50909,0.07273c0.09502,0.03936 0.14545,0.07273 0.21818,0.07273c0.07273,0 0.14545,0 0.21818,0c0.07273,0 0.14545,0 0.36364,0c0.07273,0 0.14545,0 0.21818,0c0.07273,0 0.15099,0.02783 0.21818,0c0.09502,-0.03936 0.16676,-0.0213 0.21818,-0.07273c0.05143,-0.05143 0.0213,-0.09403 0.07273,-0.14545c0.05143,-0.05143 0.07273,-0.07273 0.14545,-0.07273c0.07273,0 0.09403,-0.0213 0.14546,-0.07273c0.05143,-0.05143 0.0213,-0.09403 0.07273,-0.14545c0.05143,-0.05143 0.14545,0 0.21818,-0.07273c0.07273,-0.07273 0.12316,-0.10609 0.21818,-0.14545c0.06719,-0.02783 0.07273,-0.07273 0.14545,-0.07273c0.07273,0 0.09403,-0.0213 0.14545,-0.07273c0.05143,-0.05143 0.05043,-0.10609 0.14546,-0.14545c0.06719,-0.02783 0.16676,-0.0213 0.21818,-0.07273c0.05143,-0.05143 0.08626,-0.05037 0.21818,-0.14545c0.08344,-0.06014 0.14545,-0.07273 0.21818,-0.07273c0.07273,0 0.12316,-0.03337 0.21818,-0.07273c0.06719,-0.02783 0.14546,-0.07273 0.21818,-0.07273c0.07273,0 0.14545,0 0.21818,0c0.07273,0 0.14545,0 0.21818,0c0.07273,0 0.14545,0 0.21818,0c0.07273,0 0.14545,0 0.21818,0c0.14546,0 0.29091,0 0.36364,0c0.14545,0 0.21818,0 0.29091,0c0.07273,0 0.07273,0.07273 0.14545,0.07273c0.07273,0 0.13264,0.03536 0.29091,0.07273c0.07078,0.01671 0.15099,0.0449 0.21818,0.07273c0.09502,0.03936 0.07273,0.14545 0.07273,0.21818c0,0.07273 0,0.14545 0,0.21818c0,0.07273 0,0.14545 0,0.21818c0,0.07273 0,0.14545 0,0.21818c0,0.07273 0,0.14546 0,0.21818c0,0.07273 0,0.14545 0,0.21818c0,0.07273 0,0.14545 0,0.21818c0,0.07273 0.02783,0.15099 0,0.21818c-0.03936,0.09502 -0.16676,0.0213 -0.21818,0.07273c-0.05143,0.05143 0,0.14546 -0.07273,0.14546c-0.07273,0 -0.15099,0.0449 -0.21818,0.07273c-0.09502,0.03936 -0.16676,0.09403 -0.21818,0.14545c-0.05143,0.05143 -0.09403,0.0213 -0.14545,0.07273c-0.05143,0.05143 -0.09403,0.0213 -0.14545,0.07273c-0.05143,0.05143 -0.07826,0.0449 -0.14545,0.07273c-0.09502,0.03936 -0.14546,0.07273 -0.21818,0.07273c-0.07273,0 -0.14545,0 -0.21818,0c-0.07273,0 -0.14545,0 -0.21818,0c-0.07273,0 -0.14545,0 -0.21818,0c-0.07273,0 -0.14545,0 -0.21818,0c-0.07273,0 -0.14546,0 -0.21818,0c-0.07273,0 -0.14545,0 -0.21818,0c-0.07273,0 -0.14545,0 -0.21818,0c-0.07273,0 -0.14545,0 -0.21818,0c-0.07273,0 -0.14545,0 -0.21818,0c-0.07273,0 -0.07273,-0.07273 -0.14546,-0.07273c-0.07273,0 -0.09403,-0.0213 -0.14545,-0.07273c-0.05143,-0.05143 -0.0838,-0.01706 -0.21818,-0.07273c-0.09502,-0.03936 -0.12316,-0.10609 -0.21818,-0.14545c-0.06719,-0.02783 -0.09403,-0.0213 -0.14545,-0.07273c-0.05143,-0.05143 -0.14545,0 -0.21818,0c-0.07273,0 -0.14545,-0.07273 -0.29091,-0.07273c-0.07273,0 -0.16676,0.05143 -0.21818,0c-0.05143,-0.05143 -0.07273,-0.07273 -0.14545,-0.07273c-0.07273,0 -0.14545,-0.07273 -0.21818,-0.07273c-0.07273,0 -0.07273,-0.07273 -0.14546,-0.07273c-0.07273,0 -0.07273,-0.07273 -0.14545,-0.07273c-0.07273,0 -0.12316,-0.10609 -0.21818,-0.14545c-0.13438,-0.05566 -0.23948,-0.0213 -0.29091,-0.07273c-0.05143,-0.05143 -0.07467,-0.05602 -0.14545,-0.07273c-0.15827,-0.03736 -0.3548,-0.18134 -0.58182,-0.21818c-0.07179,-0.01165 -0.07273,-0.07273 -0.14545,-0.07273c-0.07273,0 -0.07273,-0.07273 -0.14545,-0.07273c-0.07273,0 -0.22916,0.04112 -0.36364,-0.14546c-0.04252,-0.059 -0.05043,-0.10609 -0.14545,-0.14545c-0.13438,-0.05566 -0.15099,-0.0449 -0.21818,-0.07273c-0.09502,-0.03936 -0.16676,-0.16676 -0.21818,-0.21818c-0.05143,-0.05143 -0.10609,-0.05043 -0.14545,-0.14545c-0.02783,-0.06719 0,-0.14545 0,-0.21818c0,-0.07273 0,-0.14545 0,-0.21818c0,-0.07273 0,-0.21818 0,-0.29091c0,-0.07273 -0.05143,-0.16676 0,-0.21818c0.05143,-0.05143 0.07273,-0.07273 0.07273,-0.14545c0,-0.07273 0.0213,-0.09403 0.07273,-0.14545c0.05143,-0.05143 0.09403,-0.0213 0.14545,-0.07273c0.05143,-0.05143 0.0213,-0.09403 0.07273,-0.14545c0.05143,-0.05143 0.15099,-0.0449 0.21818,-0.07273c0.09502,-0.03936 0.15099,-0.11762 0.21818,-0.14545c0.09502,-0.03936 0.14545,-0.14545 0.21818,-0.14545c0.07273,0 0.11762,-0.00554 0.14545,-0.07273c0.03936,-0.09502 0.13264,-0.18082 0.29091,-0.21818c0.07078,-0.01671 0.07273,-0.07273 0.14545,-0.14545c0.07273,-0.07273 0.09403,-0.09403 0.14545,-0.14545c0.05143,-0.05143 0.07273,-0.07273 0.14546,-0.14546c0.14545,-0.14545 0.21818,-0.14545 0.21818,-0.21818c0,-0.07273 0.05043,-0.17882 0.14545,-0.21818c0.06719,-0.02783 0.10609,-0.05043 0.14545,-0.14545c0.02783,-0.06719 0.0213,-0.09403 0.07273,-0.14545c0.05143,-0.05143 0.10609,-0.12316 0.14545,-0.21818c0.02783,-0.06719 0.01706,-0.0838 0.07273,-0.21818c0.03936,-0.09502 0.25355,-0.20536 0.29091,-0.36364c0.01671,-0.07078 0.03337,-0.12316 0.07273,-0.21818c0.02783,-0.06719 0.0213,-0.16676 0.07273,-0.21818c0.05143,-0.05143 0.14545,-0.14545 0.14545,-0.21818c0,-0.07273 0.07273,-0.14545 0.07273,-0.21818c0,-0.07273 0.05602,-0.07467 0.07273,-0.14545c0.03736,-0.15827 0.10609,-0.19589 0.14545,-0.29091c0.02783,-0.06719 0,-0.21818 0,-0.29091c0,-0.14545 0,-0.21818 0,-0.36364c0,-0.14545 0.07273,-0.14545 0.07273,-0.21818c0,-0.07273 0,-0.14545 0,-0.21818c0,-0.07273 0,-0.14545 0,-0.21818c0,-0.07273 0,-0.14545 0,-0.21818c0,-0.07273 0,-0.14545 0,-0.21818c0,-0.07273 0,-0.14545 0,-0.21818c0,-0.07273 -0.12316,-0.17882 -0.21818,-0.21818c-0.06719,-0.02783 -0.0213,-0.09403 -0.07273,-0.14545c-0.05143,-0.05143 -0.14545,0 -0.21818,0c-0.07273,0 -0.29145,-0.00889 -0.36364,0c-0.29762,0.03664 -0.36917,0.0449 -0.43636,0.07273c-0.09502,0.03936 -0.12316,0.10609 -0.21818,0.14545c-0.06719,0.02783 -0.20747,0.01259 -0.29091,0.07273c-0.13193,0.09509 -0.19589,0.17882 -0.29091,0.21818c-0.13438,0.05566 -0.25155,0.05043 -0.29091,0.14545c-0.02783,0.06719 -0.17882,0.05043 -0.21818,0.14545c-0.02783,0.06719 -0.05037,0.08626 -0.14545,0.21818c-0.06014,0.08344 -0.14545,0.14545 -0.21818,0.21818c-0.07273,0.07273 -0.12316,0.17882 -0.21818,0.21818c-0.06719,0.02783 -0.08626,0.05037 -0.21818,0.14545c-0.08344,0.06014 -0.14545,0.14545 -0.21818,0.14545c-0.07273,0 -0.12403,0.02518 -0.29091,0.14545c-0.13193,0.09509 -0.29091,0.14545 -0.36364,0.14545c-0.07273,0 -0.07826,0.0449 -0.14545,0.07273c-0.09502,0.03936 -0.16676,0.0213 -0.21818,0.07273c-0.05143,0.05143 -0.0213,0.09403 -0.07273,0.14545c-0.05143,0.05143 -0.22207,-0.03342 -0.36364,0c-0.15827,0.03736 -0.22372,0.11762 -0.29091,0.14545c-0.09502,0.03936 -0.20536,0.10809 -0.36364,0.14545c-0.21235,0.05013 -0.29091,0.14545 -0.43636,0.14545c-0.07273,0 -0.168,-0.04818 -0.36364,0.07273c-0.08749,0.05407 -0.21818,0.07273 -0.29091,0.07273c-0.07273,0 -0.14545,0 -0.36364,0.07273c-0.21818,0.07273 -0.29091,0.14545 -0.36364,0.14545c-0.07273,0 -0.12316,0.03337 -0.21818,0.07273c-0.20157,0.08349 -0.29091,0 -0.36364,0c-0.14545,0 -0.21818,0 -0.29091,0c-0.07273,0 -0.14545,0 -0.21818,0c-0.07273,0 -0.14545,0 -0.21818,0c-0.07273,0 -0.14545,0 -0.21818,0c-0.07273,0 -0.07273,-0.07273 -0.07273,-0.14545c0,-0.07273 -0.07273,-0.07273 -0.07273,-0.14545c0,-0.07273 0,-0.21818 0,-0.29091c0,-0.07273 0,-0.21818 0,-0.29091c0,-0.07273 0,-0.14545 0,-0.21818c0,-0.07273 0,-0.14545 0,-0.21818c0,-0.07273 0.09403,-0.0213 0.14545,-0.07273c0.05143,-0.05143 0.07273,-0.07273 0.07273,-0.14545c0,-0.07273 0.05991,-0.18082 0.21818,-0.21818c0.07078,-0.01671 0.07273,-0.07273 0.14545,-0.07273c0.07273,0 0.15099,-0.11762 0.21818,-0.14545c0.09502,-0.03936 0.15099,-0.0449 0.21818,-0.07273c0.09502,-0.03936 0.10722,-0.08359 0.14545,-0.14545c0.0855,-0.13834 0.22372,-0.0449 0.29091,-0.07273c0.09502,-0.03936 0.22013,-0.12875 0.29091,-0.14545c0.15827,-0.03736 0.22207,-0.11204 0.36364,-0.14545c0.15827,-0.03736 0.16676,-0.09403 0.21818,-0.14545c0.05143,-0.05143 0.14545,-0.07273 0.21818,-0.07273c0.07273,0 0.14545,0 0.21818,-0.07273c0.07273,-0.07273 0.07826,-0.11762 0.14545,-0.14545c0.09502,-0.03936 0.11762,-0.07826 0.14545,-0.14545c0.03936,-0.09502 0.09403,-0.09403 0.14545,-0.14545c0.05143,-0.05143 0.07826,-0.0449 0.14545,-0.07273c0.09502,-0.03936 0.0213,-0.16676 0.07273,-0.21818c0.05143,-0.05143 0.0449,-0.07826 0.07273,-0.14545c0.03936,-0.09502 0.16676,-0.16676 0.21818,-0.21818c0.10285,-0.10285 0,-0.21818 0,-0.29091c0,-0.14545 0,-0.21818 0,-0.29091c0,-0.07273 0,-0.14545 0,-0.21818c0,-0.07273 0,-0.21818 0,-0.29091c0,-0.07273 0,-0.14545 0,-0.21818c0,-0.07273 -0.07273,-0.07273 -0.07273,-0.14545c0,-0.07273 -0.07273,-0.07273 -0.07273,-0.14545c0,-0.07273 -0.07273,-0.07273 -0.07273,-0.14545l-0.07273,0l0,-0.07273" id="svg_3" stroke="#000" fill="none"/>
 </g>

</svg>